<svg xmlns="http://www.w3.org/2000/svg" version="1.1" xmlns:xlink="http://www.w3.org/1999/xlink" xmlns:svgjs="http://svgjs.com/svgjs" width="1440" height="560" preserveAspectRatio="none" viewBox="0 0 1440 560">
    <g mask="url(&quot;#SvgjsMask1000&quot;)" fill="none">
        <rect width="1440" height="560" x="0" y="0" fill="#0e2a47"></rect>
        <path d="M-108.77 361.72L-108.77 361.72" stroke="#132e65" stroke-width="1.5"></path>
        <path d="M-108.77 361.72L42.31 338.27" stroke="#132e65" stroke-width="1.5"></path>
        <path d="M-108.77 361.72L-110.31 531.09" stroke="#132e65" stroke-width="1.5"></path>
        <path d="M-110.31 531.09L-110.31 531.09" stroke="#132e65" stroke-width="1.5"></path>
        <path d="M-110.31 531.09L-105.14 668.58" stroke="#132e65" stroke-width="1.5"></path>
        <path d="M-105.14 668.58L-105.14 668.58" stroke="#132e65" stroke-width="1.5"></path>
        <path d="M-105.14 668.58L75.89 650.24" stroke="#132e65" stroke-width="1.5"></path>
        <path d="M42.31 338.27L42.31 338.27" stroke="#132e65" stroke-width="1.5"></path>
        <path d="M42.31 338.27L241.65 347.13" stroke="#132e65" stroke-width="1.5"></path>
        <path d="M42.31 338.27L70.33 551.62" stroke="#132e65" stroke-width="1.5"></path>
        <path d="M70.33 551.62L70.33 551.62" stroke="#132e65" stroke-width="1.5"></path>
        <path d="M70.33 551.62L75.89 650.24" stroke="#132e65" stroke-width="1.5"></path>
        <path d="M70.33 551.62L229.31 523.57" stroke="#132e65" stroke-width="1.5"></path>
        <path d="M75.89 650.24L75.89 650.24" stroke="#132e65" stroke-width="1.5"></path>
        <path d="M75.89 650.24L252.53 677.88" stroke="#132e65" stroke-width="1.5"></path>
        <path d="M75.89 650.24L229.31 523.57" stroke="#132e65" stroke-width="1.5"></path>
        <path d="M75.89 650.24L-110.31 531.09" stroke="#132e65" stroke-width="1.5"></path>
        <path d="M75.89 650.24L338.29 688.59" stroke="#132e65" stroke-width="1.5"></path>
        <path d="M241.65 347.13L241.65 347.13" stroke="#132e65" stroke-width="1.5"></path>
        <path d="M241.65 347.13L229.31 523.57" stroke="#132e65" stroke-width="1.5"></path>
        <path d="M241.65 347.13L408.01 410.46" stroke="#132e65" stroke-width="1.5"></path>
        <path d="M229.31 523.57L229.31 523.57" stroke="#132e65" stroke-width="1.5"></path>
        <path d="M229.31 523.57L377.6 531.9" stroke="#132e65" stroke-width="1.5"></path>
        <path d="M229.31 523.57L252.53 677.88" stroke="#132e65" stroke-width="1.5"></path>
        <path d="M252.53 677.88L252.53 677.88" stroke="#132e65" stroke-width="1.5"></path>
        <path d="M252.53 677.88L338.29 688.59" stroke="#132e65" stroke-width="1.5"></path>
        <path d="M408.01 410.46L408.01 410.46" stroke="#132e65" stroke-width="1.5"></path>
        <path d="M408.01 410.46L377.6 531.9" stroke="#132e65" stroke-width="1.5"></path>
        <path d="M408.01 410.46L548.15 352.82" stroke="#132e65" stroke-width="1.5"></path>
        <path d="M408.01 410.46L229.31 523.57" stroke="#132e65" stroke-width="1.5"></path>
        <path d="M377.6 531.9L377.6 531.9" stroke="#132e65" stroke-width="1.5"></path>
        <path d="M377.6 531.9L338.29 688.59" stroke="#132e65" stroke-width="1.5"></path>
        <path d="M377.6 531.9L252.53 677.88" stroke="#132e65" stroke-width="1.5"></path>
        <path d="M377.6 531.9L241.65 347.13" stroke="#132e65" stroke-width="1.5"></path>
        <path d="M377.6 531.9L548.15 352.82" stroke="#132e65" stroke-width="1.5"></path>
        <path d="M338.29 688.59L338.29 688.59" stroke="#132e65" stroke-width="1.5"></path>
        <path d="M548.15 352.82L548.15 352.82" stroke="#132e65" stroke-width="1.5"></path>
        <path d="M548.15 352.82L701.02 385" stroke="#132e65" stroke-width="1.5"></path>
        <path d="M701.02 385L701.02 385" stroke="#132e65" stroke-width="1.5"></path>
        <path d="M701.02 385L804.41 402.22" stroke="#132e65" stroke-width="1.5"></path>
        <path d="M662.38 522.58L662.38 522.58" stroke="#132e65" stroke-width="1.5"></path>
        <path d="M662.38 522.58L683.6 652.39" stroke="#132e65" stroke-width="1.5"></path>
        <path d="M662.38 522.58L701.02 385" stroke="#132e65" stroke-width="1.5"></path>
        <path d="M662.38 522.58L804.41 402.22" stroke="#132e65" stroke-width="1.5"></path>
        <path d="M662.38 522.58L853.81 539.48" stroke="#132e65" stroke-width="1.5"></path>
        <path d="M662.38 522.58L548.15 352.82" stroke="#132e65" stroke-width="1.5"></path>
        <path d="M662.38 522.58L821.15 654.22" stroke="#132e65" stroke-width="1.5"></path>
        <path d="M683.6 652.39L683.6 652.39" stroke="#132e65" stroke-width="1.5"></path>
        <path d="M683.6 652.39L821.15 654.22" stroke="#132e65" stroke-width="1.5"></path>
        <path d="M683.6 652.39L853.81 539.48" stroke="#132e65" stroke-width="1.5"></path>
        <path d="M683.6 652.39L945.67 644.25" stroke="#132e65" stroke-width="1.5"></path>
        <path d="M857.59 50.8L857.59 50.8" stroke="#132e65" stroke-width="1.5"></path>
        <path d="M857.59 50.8L969.65 -77.96" stroke="#132e65" stroke-width="1.5"></path>
        <path d="M857.59 50.8L818.22 222.66" stroke="#132e65" stroke-width="1.5"></path>
        <path d="M857.59 50.8L990.5 260.28" stroke="#132e65" stroke-width="1.5"></path>
        <path d="M857.59 50.8L1099.42 -84.9" stroke="#132e65" stroke-width="1.5"></path>
        <path d="M818.22 222.66L818.22 222.66" stroke="#132e65" stroke-width="1.5"></path>
        <path d="M818.22 222.66L990.5 260.28" stroke="#132e65" stroke-width="1.5"></path>
        <path d="M818.22 222.66L804.41 402.22" stroke="#132e65" stroke-width="1.5"></path>
        <path d="M818.22 222.66L701.02 385" stroke="#132e65" stroke-width="1.5"></path>
        <path d="M818.22 222.66L966.71 367.89" stroke="#132e65" stroke-width="1.5"></path>
        <path d="M818.22 222.66L1104.2 219.34" stroke="#132e65" stroke-width="1.5"></path>
        <path d="M804.41 402.22L804.41 402.22" stroke="#132e65" stroke-width="1.5"></path>
        <path d="M804.41 402.22L853.81 539.48" stroke="#132e65" stroke-width="1.5"></path>
        <path d="M804.41 402.22L966.71 367.89" stroke="#132e65" stroke-width="1.5"></path>
        <path d="M853.81 539.48L853.81 539.48" stroke="#132e65" stroke-width="1.5"></path>
        <path d="M853.81 539.48L967.07 510.3" stroke="#132e65" stroke-width="1.5"></path>
        <path d="M853.81 539.48L821.15 654.22" stroke="#132e65" stroke-width="1.5"></path>
        <path d="M853.81 539.48L945.67 644.25" stroke="#132e65" stroke-width="1.5"></path>
        <path d="M821.15 654.22L821.15 654.22" stroke="#132e65" stroke-width="1.5"></path>
        <path d="M821.15 654.22L945.67 644.25" stroke="#132e65" stroke-width="1.5"></path>
        <path d="M969.65 -77.96L969.65 -77.96" stroke="#132e65" stroke-width="1.5"></path>
        <path d="M969.65 -77.96L1099.42 -84.9" stroke="#132e65" stroke-width="1.5"></path>
        <path d="M990.5 260.28L990.5 260.28" stroke="#132e65" stroke-width="1.5"></path>
        <path d="M990.5 260.28L966.71 367.89" stroke="#132e65" stroke-width="1.5"></path>
        <path d="M990.5 260.28L1104.2 219.34" stroke="#132e65" stroke-width="1.5"></path>
        <path d="M990.5 260.28L1102.18 406.52" stroke="#132e65" stroke-width="1.5"></path>
        <path d="M990.5 260.28L804.41 402.22" stroke="#132e65" stroke-width="1.5"></path>
        <path d="M966.71 367.89L966.71 367.89" stroke="#132e65" stroke-width="1.5"></path>
        <path d="M966.71 367.89L1102.18 406.52" stroke="#132e65" stroke-width="1.5"></path>
        <path d="M967.07 510.3L967.07 510.3" stroke="#132e65" stroke-width="1.5"></path>
        <path d="M967.07 510.3L945.67 644.25" stroke="#132e65" stroke-width="1.5"></path>
        <path d="M967.07 510.3L1106 488.43" stroke="#132e65" stroke-width="1.5"></path>
        <path d="M945.67 644.25L945.67 644.25" stroke="#132e65" stroke-width="1.5"></path>
        <path d="M1099.42 -84.9L1099.42 -84.9" stroke="#132e65" stroke-width="1.5"></path>
        <path d="M1099.42 -84.9L1136.69 39.94" stroke="#132e65" stroke-width="1.5"></path>
        <path d="M1099.42 -84.9L1282.38 -106.98" stroke="#132e65" stroke-width="1.5"></path>
        <path d="M1099.42 -84.9L1303.75 38.66" stroke="#132e65" stroke-width="1.5"></path>
        <path d="M1099.42 -84.9L1104.2 219.34" stroke="#132e65" stroke-width="1.5"></path>
        <path d="M1136.69 39.94L1136.69 39.94" stroke="#132e65" stroke-width="1.5"></path>
        <path d="M1136.69 39.94L1303.75 38.66" stroke="#132e65" stroke-width="1.5"></path>
        <path d="M1136.69 39.94L1104.2 219.34" stroke="#132e65" stroke-width="1.5"></path>
        <path d="M1136.69 39.94L969.65 -77.96" stroke="#132e65" stroke-width="1.5"></path>
        <path d="M1136.69 39.94L1282.38 -106.98" stroke="#132e65" stroke-width="1.5"></path>
        <path d="M1136.69 39.94L1293.02 202.5" stroke="#132e65" stroke-width="1.5"></path>
        <path d="M1104.2 219.34L1104.2 219.34" stroke="#132e65" stroke-width="1.5"></path>
        <path d="M1104.2 219.34L1102.18 406.52" stroke="#132e65" stroke-width="1.5"></path>
        <path d="M1104.2 219.34L1293.02 202.5" stroke="#132e65" stroke-width="1.5"></path>
        <path d="M1104.2 219.34L966.71 367.89" stroke="#132e65" stroke-width="1.5"></path>
        <path d="M1104.2 219.34L1272.47 386.06" stroke="#132e65" stroke-width="1.5"></path>
        <path d="M1102.18 406.52L1102.18 406.52" stroke="#132e65" stroke-width="1.5"></path>
        <path d="M1102.18 406.52L1106 488.43" stroke="#132e65" stroke-width="1.5"></path>
        <path d="M1102.18 406.52L1237.89 498.46" stroke="#132e65" stroke-width="1.5"></path>
        <path d="M1102.18 406.52L967.07 510.3" stroke="#132e65" stroke-width="1.5"></path>
        <path d="M1102.18 406.52L1272.47 386.06" stroke="#132e65" stroke-width="1.5"></path>
        <path d="M1106 488.43L1106 488.43" stroke="#132e65" stroke-width="1.5"></path>
        <path d="M1106 488.43L1237.89 498.46" stroke="#132e65" stroke-width="1.5"></path>
        <path d="M1106 488.43L1142.63 653.67" stroke="#132e65" stroke-width="1.5"></path>
        <path d="M1106 488.43L966.71 367.89" stroke="#132e65" stroke-width="1.5"></path>
        <path d="M1106 488.43L1272.47 386.06" stroke="#132e65" stroke-width="1.5"></path>
        <path d="M1142.63 653.67L1142.63 653.67" stroke="#132e65" stroke-width="1.5"></path>
        <path d="M1142.63 653.67L1252.61 706.38" stroke="#132e65" stroke-width="1.5"></path>
        <path d="M1142.63 653.67L1237.89 498.46" stroke="#132e65" stroke-width="1.5"></path>
        <path d="M1142.63 653.67L945.67 644.25" stroke="#132e65" stroke-width="1.5"></path>
        <path d="M1142.63 653.67L967.07 510.3" stroke="#132e65" stroke-width="1.5"></path>
        <path d="M1142.63 653.67L1102.18 406.52" stroke="#132e65" stroke-width="1.5"></path>
        <path d="M1282.38 -106.98L1282.38 -106.98" stroke="#132e65" stroke-width="1.5"></path>
        <path d="M1282.38 -106.98L1419 -91.73" stroke="#132e65" stroke-width="1.5"></path>
        <path d="M1282.38 -106.98L1303.75 38.66" stroke="#132e65" stroke-width="1.5"></path>
        <path d="M1282.38 -106.98L1420.36 56.8" stroke="#132e65" stroke-width="1.5"></path>
        <path d="M1303.75 38.66L1303.75 38.66" stroke="#132e65" stroke-width="1.5"></path>
        <path d="M1303.75 38.66L1420.36 56.8" stroke="#132e65" stroke-width="1.5"></path>
        <path d="M1293.02 202.5L1293.02 202.5" stroke="#132e65" stroke-width="1.5"></path>
        <path d="M1293.02 202.5L1449.14 245.22" stroke="#132e65" stroke-width="1.5"></path>
        <path d="M1293.02 202.5L1303.75 38.66" stroke="#132e65" stroke-width="1.5"></path>
        <path d="M1293.02 202.5L1272.47 386.06" stroke="#132e65" stroke-width="1.5"></path>
        <path d="M1272.47 386.06L1272.47 386.06" stroke="#132e65" stroke-width="1.5"></path>
        <path d="M1272.47 386.06L1237.89 498.46" stroke="#132e65" stroke-width="1.5"></path>
        <path d="M1272.47 386.06L1444.3 359.53" stroke="#132e65" stroke-width="1.5"></path>
        <path d="M1237.89 498.46L1237.89 498.46" stroke="#132e65" stroke-width="1.5"></path>
        <path d="M1237.89 498.46L1252.61 706.38" stroke="#132e65" stroke-width="1.5"></path>
        <path d="M1252.61 706.38L1252.61 706.38" stroke="#132e65" stroke-width="1.5"></path>
        <path d="M1252.61 706.38L1457.76 661.63" stroke="#132e65" stroke-width="1.5"></path>
        <path d="M1252.61 706.38L1106 488.43" stroke="#132e65" stroke-width="1.5"></path>
        <path d="M1419 -91.73L1419 -91.73" stroke="#132e65" stroke-width="1.5"></path>
        <path d="M1419 -91.73L1420.36 56.8" stroke="#132e65" stroke-width="1.5"></path>
        <path d="M1419 -91.73L1581.99 -70.21" stroke="#132e65" stroke-width="1.5"></path>
        <path d="M1419 -91.73L1303.75 38.66" stroke="#132e65" stroke-width="1.5"></path>
        <path d="M1419 -91.73L1558.95 49.93" stroke="#132e65" stroke-width="1.5"></path>
        <path d="M1419 -91.73L1136.69 39.94" stroke="#132e65" stroke-width="1.5"></path>
        <path d="M1420.36 56.8L1420.36 56.8" stroke="#132e65" stroke-width="1.5"></path>
        <path d="M1420.36 56.8L1558.95 49.93" stroke="#132e65" stroke-width="1.5"></path>
        <path d="M1420.36 56.8L1449.14 245.22" stroke="#132e65" stroke-width="1.5"></path>
        <path d="M1420.36 56.8L1293.02 202.5" stroke="#132e65" stroke-width="1.5"></path>
        <path d="M1420.36 56.8L1581.99 -70.21" stroke="#132e65" stroke-width="1.5"></path>
        <path d="M1449.14 245.22L1449.14 245.22" stroke="#132e65" stroke-width="1.5"></path>
        <path d="M1449.14 245.22L1444.3 359.53" stroke="#132e65" stroke-width="1.5"></path>
        <path d="M1449.14 245.22L1580.72 190.85" stroke="#132e65" stroke-width="1.5"></path>
        <path d="M1449.14 245.22L1574.83 381.29" stroke="#132e65" stroke-width="1.5"></path>
        <path d="M1444.3 359.53L1444.3 359.53" stroke="#132e65" stroke-width="1.5"></path>
        <path d="M1444.3 359.53L1574.83 381.29" stroke="#132e65" stroke-width="1.5"></path>
        <path d="M1444.3 359.53L1453.71 529.47" stroke="#132e65" stroke-width="1.5"></path>
        <path d="M1453.71 529.47L1453.71 529.47" stroke="#132e65" stroke-width="1.5"></path>
        <path d="M1453.71 529.47L1561.15 555.45" stroke="#132e65" stroke-width="1.5"></path>
        <path d="M1453.71 529.47L1457.76 661.63" stroke="#132e65" stroke-width="1.5"></path>
        <path d="M1457.76 661.63L1457.76 661.63" stroke="#132e65" stroke-width="1.5"></path>
        <path d="M1457.76 661.63L1561.15 555.45" stroke="#132e65" stroke-width="1.5"></path>
        <path d="M1457.76 661.63L1605.19 712.06" stroke="#132e65" stroke-width="1.5"></path>
        <path d="M1457.76 661.63L1237.89 498.46" stroke="#132e65" stroke-width="1.5"></path>
        <path d="M1457.76 661.63L1444.3 359.53" stroke="#132e65" stroke-width="1.5"></path>
        <path d="M1581.99 -70.21L1581.99 -70.21" stroke="#132e65" stroke-width="1.5"></path>
        <path d="M1581.99 -70.21L1558.95 49.93" stroke="#132e65" stroke-width="1.5"></path>
        <path d="M1558.95 49.93L1558.95 49.93" stroke="#132e65" stroke-width="1.5"></path>
        <path d="M1580.72 190.85L1580.72 190.85" stroke="#132e65" stroke-width="1.5"></path>
        <path d="M1580.72 190.85L1558.95 49.93" stroke="#132e65" stroke-width="1.5"></path>
        <path d="M1580.72 190.85L1574.83 381.29" stroke="#132e65" stroke-width="1.5"></path>
        <path d="M1574.83 381.29L1574.83 381.29" stroke="#132e65" stroke-width="1.5"></path>
        <path d="M1574.83 381.29L1561.15 555.45" stroke="#132e65" stroke-width="1.5"></path>
        <path d="M1561.15 555.45L1561.15 555.45" stroke="#132e65" stroke-width="1.5"></path>
        <path d="M1605.19 712.06L1605.19 712.06" stroke="#132e65" stroke-width="1.5"></path>
        <path d="M1605.19 712.06L1561.15 555.45" stroke="#132e65" stroke-width="1.5"></path>
        <path d="M1605.19 712.06L1453.71 529.47" stroke="#132e65" stroke-width="1.5"></path>
        <circle r="5" cx="-108.77" cy="361.72" fill="#132e65"></circle>
        <circle r="5" cx="-110.31" cy="531.09" fill="#132e65"></circle>
        <circle r="5" cx="-105.14" cy="668.58" fill="#132e65"></circle>
        <circle r="5" cx="42.31" cy="338.27" fill="#132e65"></circle>
        <circle r="5" cx="70.33" cy="551.62" fill="#132e65"></circle>
        <circle r="5" cx="75.89" cy="650.24" fill="#132e65"></circle>
        <circle r="5" cx="241.65" cy="347.13" fill="#132e65"></circle>
        <circle r="5" cx="229.31" cy="523.57" fill="#132e65"></circle>
        <circle r="5" cx="252.53" cy="677.88" fill="#132e65"></circle>
        <circle r="5" cx="408.01" cy="410.46" fill="#132e65"></circle>
        <circle r="5" cx="377.6" cy="531.9" fill="#132e65"></circle>
        <circle r="5" cx="338.29" cy="688.59" fill="#132e65"></circle>
        <circle r="5" cx="548.15" cy="352.82" fill="#132e65"></circle>
        <circle r="5" cx="701.02" cy="385" fill="#132e65"></circle>
        <circle r="5" cx="662.38" cy="522.58" fill="#132e65"></circle>
        <circle r="5" cx="683.6" cy="652.39" fill="#132e65"></circle>
        <circle r="5" cx="857.59" cy="50.8" fill="#132e65"></circle>
        <circle r="5" cx="818.22" cy="222.66" fill="#132e65"></circle>
        <circle r="5" cx="804.41" cy="402.22" fill="#132e65"></circle>
        <circle r="5" cx="853.81" cy="539.48" fill="#132e65"></circle>
        <circle r="5" cx="821.15" cy="654.22" fill="#132e65"></circle>
        <circle r="5" cx="969.65" cy="-77.96" fill="#132e65"></circle>
        <circle r="5" cx="990.5" cy="260.28" fill="#132e65"></circle>
        <circle r="5" cx="966.71" cy="367.89" fill="#132e65"></circle>
        <circle r="5" cx="967.07" cy="510.3" fill="#132e65"></circle>
        <circle r="5" cx="945.67" cy="644.25" fill="#132e65"></circle>
        <circle r="5" cx="1099.42" cy="-84.9" fill="#132e65"></circle>
        <circle r="5" cx="1136.69" cy="39.94" fill="#132e65"></circle>
        <circle r="5" cx="1104.2" cy="219.34" fill="#132e65"></circle>
        <circle r="5" cx="1102.18" cy="406.52" fill="#132e65"></circle>
        <circle r="5" cx="1106" cy="488.43" fill="#132e65"></circle>
        <circle r="5" cx="1142.63" cy="653.67" fill="#132e65"></circle>
        <circle r="5" cx="1282.38" cy="-106.98" fill="#132e65"></circle>
        <circle r="5" cx="1303.75" cy="38.66" fill="#132e65"></circle>
        <circle r="5" cx="1293.02" cy="202.5" fill="#132e65"></circle>
        <circle r="5" cx="1272.47" cy="386.06" fill="#132e65"></circle>
        <circle r="5" cx="1237.89" cy="498.46" fill="#132e65"></circle>
        <circle r="5" cx="1252.61" cy="706.38" fill="#132e65"></circle>
        <circle r="5" cx="1419" cy="-91.73" fill="#132e65"></circle>
        <circle r="5" cx="1420.36" cy="56.8" fill="#132e65"></circle>
        <circle r="5" cx="1449.14" cy="245.22" fill="#132e65"></circle>
        <circle r="5" cx="1444.3" cy="359.53" fill="#132e65"></circle>
        <circle r="5" cx="1453.71" cy="529.47" fill="#132e65"></circle>
        <circle r="5" cx="1457.76" cy="661.63" fill="#132e65"></circle>
        <circle r="5" cx="1581.99" cy="-70.21" fill="#132e65"></circle>
        <circle r="5" cx="1558.95" cy="49.93" fill="#132e65"></circle>
        <circle r="5" cx="1580.72" cy="190.85" fill="#132e65"></circle>
        <circle r="5" cx="1574.83" cy="381.29" fill="#132e65"></circle>
        <circle r="5" cx="1561.15" cy="555.45" fill="#132e65"></circle>
        <circle r="5" cx="1605.19" cy="712.06" fill="#132e65"></circle>
        <path d="M999.64 222.87L999.64 222.87" stroke="hsl(228.5, 77.2%, 51.5%)" stroke-width="1.5"></path>
        <path d="M999.64 222.87L963.17 345.41" stroke="hsl(228.5, 77.2%, 51.5%)" stroke-width="1.5"></path>
        <path d="M999.64 222.87L1122.09 376.09" stroke="hsl(228.5, 77.2%, 51.5%)" stroke-width="1.5"></path>
        <path d="M999.64 222.87L1271.92 243.78" stroke="hsl(228.5, 77.2%, 51.5%)" stroke-width="1.5"></path>
        <path d="M999.64 222.87L980.89 505.78" stroke="hsl(228.5, 77.2%, 51.5%)" stroke-width="1.5"></path>
        <path d="M963.17 345.41L963.17 345.41" stroke="hsl(228.5, 77.2%, 51.5%)" stroke-width="1.5"></path>
        <path d="M963.17 345.41L980.89 505.78" stroke="hsl(228.5, 77.2%, 51.5%)" stroke-width="1.5"></path>
        <path d="M980.89 505.78L980.89 505.78" stroke="hsl(228.5, 77.2%, 51.5%)" stroke-width="1.5"></path>
        <path d="M980.89 505.78L973.45 654.79" stroke="hsl(228.5, 77.2%, 51.5%)" stroke-width="1.5"></path>
        <path d="M980.89 505.78L1146.38 492.48" stroke="hsl(228.5, 77.2%, 51.5%)" stroke-width="1.5"></path>
        <path d="M980.89 505.78L1122.09 376.09" stroke="hsl(228.5, 77.2%, 51.5%)" stroke-width="1.5"></path>
        <path d="M980.89 505.78L1160.2 663.89" stroke="hsl(228.5, 77.2%, 51.5%)" stroke-width="1.5"></path>
        <path d="M1244.75 67.84L1244.75 67.84" stroke="hsl(228.5, 77.2%, 51.5%)" stroke-width="1.5"></path>
        <path d="M1244.75 67.84L1392.09 43.32" stroke="hsl(228.5, 77.2%, 51.5%)" stroke-width="1.5"></path>
        <path d="M1244.75 67.84L1297.96 -80.25" stroke="hsl(228.5, 77.2%, 51.5%)" stroke-width="1.5"></path>
        <path d="M1244.75 67.84L1271.92 243.78" stroke="hsl(228.5, 77.2%, 51.5%)" stroke-width="1.5"></path>
        <path d="M1548.68 -85.58L1548.68 -85.58" stroke="hsl(228.5, 77.2%, 51.5%)" stroke-width="1.5"></path>
        <path d="M1548.68 -85.58L1403.32 -44.02" stroke="hsl(228.5, 77.2%, 51.5%)" stroke-width="1.5"></path>
        <path d="M1548.68 -85.58L1554.75 107.32" stroke="hsl(228.5, 77.2%, 51.5%)" stroke-width="1.5"></path>
        <path d="M1548.68 -85.58L1392.09 43.32" stroke="hsl(228.5, 77.2%, 51.5%)" stroke-width="1.5"></path>
        <path d="M1548.68 -85.58L1297.96 -80.25" stroke="hsl(228.5, 77.2%, 51.5%)" stroke-width="1.5"></path>
        <path d="M1548.68 -85.58L1540.85 232.69" stroke="hsl(228.5, 77.2%, 51.5%)" stroke-width="1.5"></path>
        <path d="M1548.68 -85.58L1244.75 67.84" stroke="hsl(228.5, 77.2%, 51.5%)" stroke-width="1.5"></path>
        <path d="M-60.92 498.51L-60.92 498.51" stroke="hsl(228.5, 77.2%, 51.5%)" stroke-width="1.5"></path>
        <path d="M-60.92 498.51L68.92 555.14" stroke="hsl(228.5, 77.2%, 51.5%)" stroke-width="1.5"></path>
        <path d="M-60.92 498.51L105.84 700.1" stroke="hsl(228.5, 77.2%, 51.5%)" stroke-width="1.5"></path>
        <path d="M68.92 555.14L68.92 555.14" stroke="hsl(228.5, 77.2%, 51.5%)" stroke-width="1.5"></path>
        <path d="M68.92 555.14L197.29 557.82" stroke="hsl(228.5, 77.2%, 51.5%)" stroke-width="1.5"></path>
        <path d="M68.92 555.14L105.84 700.1" stroke="hsl(228.5, 77.2%, 51.5%)" stroke-width="1.5"></path>
        <path d="M105.84 700.1L105.84 700.1" stroke="hsl(228.5, 77.2%, 51.5%)" stroke-width="1.5"></path>
        <path d="M105.84 700.1L218.04 684.28" stroke="hsl(228.5, 77.2%, 51.5%)" stroke-width="1.5"></path>
        <path d="M105.84 700.1L197.29 557.82" stroke="hsl(228.5, 77.2%, 51.5%)" stroke-width="1.5"></path>
        <path d="M197.29 557.82L197.29 557.82" stroke="hsl(228.5, 77.2%, 51.5%)" stroke-width="1.5"></path>
        <path d="M197.29 557.82L218.04 684.28" stroke="hsl(228.5, 77.2%, 51.5%)" stroke-width="1.5"></path>
        <path d="M218.04 684.28L218.04 684.28" stroke="hsl(228.5, 77.2%, 51.5%)" stroke-width="1.5"></path>
        <path d="M218.04 684.28L390.61 705.09" stroke="hsl(228.5, 77.2%, 51.5%)" stroke-width="1.5"></path>
        <path d="M218.04 684.28L68.92 555.14" stroke="hsl(228.5, 77.2%, 51.5%)" stroke-width="1.5"></path>
        <path d="M218.04 684.28L390.88 502.24" stroke="hsl(228.5, 77.2%, 51.5%)" stroke-width="1.5"></path>
        <path d="M218.04 684.28L-60.92 498.51" stroke="hsl(228.5, 77.2%, 51.5%)" stroke-width="1.5"></path>
        <path d="M390.88 502.24L390.88 502.24" stroke="hsl(228.5, 77.2%, 51.5%)" stroke-width="1.5"></path>
        <path d="M390.88 502.24L545.84 493.71" stroke="hsl(228.5, 77.2%, 51.5%)" stroke-width="1.5"></path>
        <path d="M390.88 502.24L197.29 557.82" stroke="hsl(228.5, 77.2%, 51.5%)" stroke-width="1.5"></path>
        <path d="M390.88 502.24L390.61 705.09" stroke="hsl(228.5, 77.2%, 51.5%)" stroke-width="1.5"></path>
        <path d="M390.88 502.24L562.07 662.17" stroke="hsl(228.5, 77.2%, 51.5%)" stroke-width="1.5"></path>
        <path d="M390.61 705.09L390.61 705.09" stroke="hsl(228.5, 77.2%, 51.5%)" stroke-width="1.5"></path>
        <path d="M390.61 705.09L562.07 662.17" stroke="hsl(228.5, 77.2%, 51.5%)" stroke-width="1.5"></path>
        <path d="M545.84 493.71L545.84 493.71" stroke="hsl(228.5, 77.2%, 51.5%)" stroke-width="1.5"></path>
        <path d="M545.84 493.71L698.43 542.39" stroke="hsl(228.5, 77.2%, 51.5%)" stroke-width="1.5"></path>
        <path d="M545.84 493.71L562.07 662.17" stroke="hsl(228.5, 77.2%, 51.5%)" stroke-width="1.5"></path>
        <path d="M545.84 493.71L672.66 646.34" stroke="hsl(228.5, 77.2%, 51.5%)" stroke-width="1.5"></path>
        <path d="M562.07 662.17L562.07 662.17" stroke="hsl(228.5, 77.2%, 51.5%)" stroke-width="1.5"></path>
        <path d="M562.07 662.17L672.66 646.34" stroke="hsl(228.5, 77.2%, 51.5%)" stroke-width="1.5"></path>
        <path d="M698.43 542.39L698.43 542.39" stroke="hsl(228.5, 77.2%, 51.5%)" stroke-width="1.5"></path>
        <path d="M698.43 542.39L672.66 646.34" stroke="hsl(228.5, 77.2%, 51.5%)" stroke-width="1.5"></path>
        <path d="M698.43 542.39L562.07 662.17" stroke="hsl(228.5, 77.2%, 51.5%)" stroke-width="1.5"></path>
        <path d="M698.43 542.39L830.46 706.39" stroke="hsl(228.5, 77.2%, 51.5%)" stroke-width="1.5"></path>
        <path d="M672.66 646.34L672.66 646.34" stroke="hsl(228.5, 77.2%, 51.5%)" stroke-width="1.5"></path>
        <path d="M830.46 706.39L830.46 706.39" stroke="hsl(228.5, 77.2%, 51.5%)" stroke-width="1.5"></path>
        <path d="M830.46 706.39L973.45 654.79" stroke="hsl(228.5, 77.2%, 51.5%)" stroke-width="1.5"></path>
        <path d="M830.46 706.39L672.66 646.34" stroke="hsl(228.5, 77.2%, 51.5%)" stroke-width="1.5"></path>
        <path d="M830.46 706.39L980.89 505.78" stroke="hsl(228.5, 77.2%, 51.5%)" stroke-width="1.5"></path>
        <path d="M973.45 654.79L973.45 654.79" stroke="hsl(228.5, 77.2%, 51.5%)" stroke-width="1.5"></path>
        <path d="M973.45 654.79L1160.2 663.89" stroke="hsl(228.5, 77.2%, 51.5%)" stroke-width="1.5"></path>
        <path d="M1122.09 376.09L1122.09 376.09" stroke="hsl(228.5, 77.2%, 51.5%)" stroke-width="1.5"></path>
        <path d="M1122.09 376.09L1146.38 492.48" stroke="hsl(228.5, 77.2%, 51.5%)" stroke-width="1.5"></path>
        <path d="M1122.09 376.09L1261.95 373.51" stroke="hsl(228.5, 77.2%, 51.5%)" stroke-width="1.5"></path>
        <path d="M1146.38 492.48L1146.38 492.48" stroke="hsl(228.5, 77.2%, 51.5%)" stroke-width="1.5"></path>
        <path d="M1146.38 492.48L1261.38 491.47" stroke="hsl(228.5, 77.2%, 51.5%)" stroke-width="1.5"></path>
        <path d="M1146.38 492.48L1261.95 373.51" stroke="hsl(228.5, 77.2%, 51.5%)" stroke-width="1.5"></path>
        <path d="M1160.2 663.89L1160.2 663.89" stroke="hsl(228.5, 77.2%, 51.5%)" stroke-width="1.5"></path>
        <path d="M1160.2 663.89L1303.34 700.87" stroke="hsl(228.5, 77.2%, 51.5%)" stroke-width="1.5"></path>
        <path d="M1297.96 -80.25L1297.96 -80.25" stroke="hsl(228.5, 77.2%, 51.5%)" stroke-width="1.5"></path>
        <path d="M1297.96 -80.25L1403.32 -44.02" stroke="hsl(228.5, 77.2%, 51.5%)" stroke-width="1.5"></path>
        <path d="M1297.96 -80.25L1392.09 43.32" stroke="hsl(228.5, 77.2%, 51.5%)" stroke-width="1.5"></path>
        <path d="M1271.92 243.78L1271.92 243.78" stroke="hsl(228.5, 77.2%, 51.5%)" stroke-width="1.5"></path>
        <path d="M1271.92 243.78L1390.72 261.91" stroke="hsl(228.5, 77.2%, 51.5%)" stroke-width="1.5"></path>
        <path d="M1271.92 243.78L1261.95 373.51" stroke="hsl(228.5, 77.2%, 51.5%)" stroke-width="1.5"></path>
        <path d="M1271.92 243.78L1396.94 358.86" stroke="hsl(228.5, 77.2%, 51.5%)" stroke-width="1.5"></path>
        <path d="M1271.92 243.78L1122.09 376.09" stroke="hsl(228.5, 77.2%, 51.5%)" stroke-width="1.5"></path>
        <path d="M1271.92 243.78L1392.09 43.32" stroke="hsl(228.5, 77.2%, 51.5%)" stroke-width="1.5"></path>
        <path d="M1261.95 373.51L1261.95 373.51" stroke="hsl(228.5, 77.2%, 51.5%)" stroke-width="1.5"></path>
        <path d="M1261.95 373.51L1261.38 491.47" stroke="hsl(228.5, 77.2%, 51.5%)" stroke-width="1.5"></path>
        <path d="M1261.38 491.47L1261.38 491.47" stroke="hsl(228.5, 77.2%, 51.5%)" stroke-width="1.5"></path>
        <path d="M1303.34 700.87L1303.34 700.87" stroke="hsl(228.5, 77.2%, 51.5%)" stroke-width="1.5"></path>
        <path d="M1303.34 700.87L1409.08 650.6" stroke="hsl(228.5, 77.2%, 51.5%)" stroke-width="1.5"></path>
        <path d="M1303.34 700.87L1261.38 491.47" stroke="hsl(228.5, 77.2%, 51.5%)" stroke-width="1.5"></path>
        <path d="M1303.34 700.87L1396.35 497.87" stroke="hsl(228.5, 77.2%, 51.5%)" stroke-width="1.5"></path>
        <path d="M1303.34 700.87L1146.38 492.48" stroke="hsl(228.5, 77.2%, 51.5%)" stroke-width="1.5"></path>
        <path d="M1303.34 700.87L1581.35 652.97" stroke="hsl(228.5, 77.2%, 51.5%)" stroke-width="1.5"></path>
        <path d="M1403.32 -44.02L1403.32 -44.02" stroke="hsl(228.5, 77.2%, 51.5%)" stroke-width="1.5"></path>
        <path d="M1403.32 -44.02L1392.09 43.32" stroke="hsl(228.5, 77.2%, 51.5%)" stroke-width="1.5"></path>
        <path d="M1392.09 43.32L1392.09 43.32" stroke="hsl(228.5, 77.2%, 51.5%)" stroke-width="1.5"></path>
        <path d="M1392.09 43.32L1554.75 107.32" stroke="hsl(228.5, 77.2%, 51.5%)" stroke-width="1.5"></path>
        <path d="M1390.72 261.91L1390.72 261.91" stroke="hsl(228.5, 77.2%, 51.5%)" stroke-width="1.5"></path>
        <path d="M1390.72 261.91L1396.94 358.86" stroke="hsl(228.5, 77.2%, 51.5%)" stroke-width="1.5"></path>
        <path d="M1390.72 261.91L1540.85 232.69" stroke="hsl(228.5, 77.2%, 51.5%)" stroke-width="1.5"></path>
        <path d="M1390.72 261.91L1261.95 373.51" stroke="hsl(228.5, 77.2%, 51.5%)" stroke-width="1.5"></path>
        <path d="M1396.94 358.86L1396.94 358.86" stroke="hsl(228.5, 77.2%, 51.5%)" stroke-width="1.5"></path>
        <path d="M1396.94 358.86L1261.95 373.51" stroke="hsl(228.5, 77.2%, 51.5%)" stroke-width="1.5"></path>
        <path d="M1396.35 497.87L1396.35 497.87" stroke="hsl(228.5, 77.2%, 51.5%)" stroke-width="1.5"></path>
        <path d="M1396.35 497.87L1261.38 491.47" stroke="hsl(228.5, 77.2%, 51.5%)" stroke-width="1.5"></path>
        <path d="M1396.35 497.87L1396.94 358.86" stroke="hsl(228.5, 77.2%, 51.5%)" stroke-width="1.5"></path>
        <path d="M1396.35 497.87L1409.08 650.6" stroke="hsl(228.5, 77.2%, 51.5%)" stroke-width="1.5"></path>
        <path d="M1396.35 497.87L1261.95 373.51" stroke="hsl(228.5, 77.2%, 51.5%)" stroke-width="1.5"></path>
        <path d="M1396.35 497.87L1562.64 394.73" stroke="hsl(228.5, 77.2%, 51.5%)" stroke-width="1.5"></path>
        <path d="M1409.08 650.6L1409.08 650.6" stroke="hsl(228.5, 77.2%, 51.5%)" stroke-width="1.5"></path>
        <path d="M1409.08 650.6L1581.35 652.97" stroke="hsl(228.5, 77.2%, 51.5%)" stroke-width="1.5"></path>
        <path d="M1554.75 107.32L1554.75 107.32" stroke="hsl(228.5, 77.2%, 51.5%)" stroke-width="1.5"></path>
        <path d="M1554.75 107.32L1540.85 232.69" stroke="hsl(228.5, 77.2%, 51.5%)" stroke-width="1.5"></path>
        <path d="M1554.75 107.32L1403.32 -44.02" stroke="hsl(228.5, 77.2%, 51.5%)" stroke-width="1.5"></path>
        <path d="M1540.85 232.69L1540.85 232.69" stroke="hsl(228.5, 77.2%, 51.5%)" stroke-width="1.5"></path>
        <path d="M1540.85 232.69L1562.64 394.73" stroke="hsl(228.5, 77.2%, 51.5%)" stroke-width="1.5"></path>
        <path d="M1540.85 232.69L1396.94 358.86" stroke="hsl(228.5, 77.2%, 51.5%)" stroke-width="1.5"></path>
        <path d="M1540.85 232.69L1392.09 43.32" stroke="hsl(228.5, 77.2%, 51.5%)" stroke-width="1.5"></path>
        <path d="M1562.64 394.73L1562.64 394.73" stroke="hsl(228.5, 77.2%, 51.5%)" stroke-width="1.5"></path>
        <path d="M1562.64 394.73L1396.94 358.86" stroke="hsl(228.5, 77.2%, 51.5%)" stroke-width="1.5"></path>
        <path d="M1609.8 561.57L1609.8 561.57" stroke="hsl(228.5, 77.2%, 51.5%)" stroke-width="1.5"></path>
        <path d="M1609.8 561.57L1581.35 652.97" stroke="hsl(228.5, 77.2%, 51.5%)" stroke-width="1.5"></path>
        <path d="M1609.8 561.57L1562.64 394.73" stroke="hsl(228.5, 77.2%, 51.5%)" stroke-width="1.5"></path>
        <path d="M1609.8 561.57L1409.08 650.6" stroke="hsl(228.5, 77.2%, 51.5%)" stroke-width="1.5"></path>
        <path d="M1609.8 561.57L1396.35 497.87" stroke="hsl(228.5, 77.2%, 51.5%)" stroke-width="1.5"></path>
        <path d="M1609.8 561.57L1396.94 358.86" stroke="hsl(228.5, 77.2%, 51.5%)" stroke-width="1.5"></path>
        <path d="M1609.8 561.57L1540.85 232.69" stroke="hsl(228.5, 77.2%, 51.5%)" stroke-width="1.5"></path>
        <path d="M1581.35 652.97L1581.35 652.97" stroke="hsl(228.5, 77.2%, 51.5%)" stroke-width="1.5"></path>
        <circle r="25" cx="999.64" cy="222.87" fill="url(#SvgjsRadialGradient1001)"></circle>
        <circle r="25" cx="963.17" cy="345.41" fill="url(#SvgjsRadialGradient1001)"></circle>
        <circle r="25" cx="980.89" cy="505.78" fill="url(#SvgjsRadialGradient1001)"></circle>
        <circle r="25" cx="1244.75" cy="67.84" fill="url(#SvgjsRadialGradient1001)"></circle>
        <circle r="25" cx="1548.68" cy="-85.58" fill="url(#SvgjsRadialGradient1001)"></circle>
        <circle r="5" cx="-60.92" cy="498.51" fill="#8b9ad9"></circle>
        <circle r="5" cx="68.92" cy="555.14" fill="#8b9ad9"></circle>
        <circle r="5" cx="105.84" cy="700.1" fill="#8b9ad9"></circle>
        <circle r="5" cx="197.29" cy="557.82" fill="#8b9ad9"></circle>
        <circle r="5" cx="218.04" cy="684.28" fill="#8b9ad9"></circle>
        <circle r="5" cx="390.88" cy="502.24" fill="#8b9ad9"></circle>
        <circle r="5" cx="390.61" cy="705.09" fill="#8b9ad9"></circle>
        <circle r="5" cx="545.84" cy="493.71" fill="#8b9ad9"></circle>
        <circle r="5" cx="562.07" cy="662.17" fill="#8b9ad9"></circle>
        <circle r="5" cx="698.43" cy="542.39" fill="#8b9ad9"></circle>
        <circle r="5" cx="672.66" cy="646.34" fill="#8b9ad9"></circle>
        <circle r="5" cx="830.46" cy="706.39" fill="#8b9ad9"></circle>
        <circle r="5" cx="973.45" cy="654.79" fill="#8b9ad9"></circle>
        <circle r="5" cx="1122.09" cy="376.09" fill="#8b9ad9"></circle>
        <circle r="5" cx="1146.38" cy="492.48" fill="#8b9ad9"></circle>
        <circle r="5" cx="1160.2" cy="663.89" fill="#8b9ad9"></circle>
        <circle r="5" cx="1297.96" cy="-80.25" fill="#8b9ad9"></circle>
        <circle r="5" cx="1271.92" cy="243.78" fill="#8b9ad9"></circle>
        <circle r="5" cx="1261.95" cy="373.51" fill="#8b9ad9"></circle>
        <circle r="5" cx="1261.38" cy="491.47" fill="#8b9ad9"></circle>
        <circle r="5" cx="1303.34" cy="700.87" fill="#8b9ad9"></circle>
        <circle r="5" cx="1403.32" cy="-44.02" fill="#8b9ad9"></circle>
        <circle r="5" cx="1392.09" cy="43.32" fill="#8b9ad9"></circle>
        <circle r="5" cx="1390.72" cy="261.91" fill="#8b9ad9"></circle>
        <circle r="5" cx="1396.94" cy="358.86" fill="#8b9ad9"></circle>
        <circle r="5" cx="1396.35" cy="497.87" fill="#8b9ad9"></circle>
        <circle r="5" cx="1409.08" cy="650.6" fill="#8b9ad9"></circle>
        <circle r="5" cx="1554.75" cy="107.32" fill="#8b9ad9"></circle>
        <circle r="5" cx="1540.85" cy="232.69" fill="#8b9ad9"></circle>
        <circle r="5" cx="1562.64" cy="394.73" fill="#8b9ad9"></circle>
        <circle r="5" cx="1609.8" cy="561.57" fill="#8b9ad9"></circle>
        <circle r="5" cx="1581.35" cy="652.97" fill="#8b9ad9"></circle>
    </g>
    <defs>
        <mask id="SvgjsMask1000">
            <rect width="1440" height="560" fill="#ffffff"></rect>
        </mask>
        <radialGradient id="SvgjsRadialGradient1001">
            <stop stop-color="#ffffff" offset="0.1"></stop>
            <stop stop-color="#1735b3" offset="0.2"></stop>
            <stop stop-color="rgba(23, 53, 179, 0)" offset="1"></stop>
        </radialGradient>
    </defs>
</svg>