<svg xmlns="http://www.w3.org/2000/svg" version="1.1" xmlns:xlink="http://www.w3.org/1999/xlink" xmlns:svgjs="http://svgjs.com/svgjs" width="1440" height="560" preserveAspectRatio="none" viewBox="0 0 1440 560">
    <g mask="url(&quot;#SvgjsMask1000&quot;)" fill="none">
        <rect width="1440" height="560" x="0" y="0" fill="#0e2a47"></rect>
        <path d="M39.55 410.75L104.5 448.25L104.5 523.25L39.55 560.75L-25.4 523.25L-25.4 448.25zM104.5 523.25L169.46 560.75L169.46 635.75L104.5 673.25L39.55 635.75L39.55 560.75zM234.41 298.25L299.37 335.75L299.37 410.75L234.41 448.25L169.46 410.75L169.46 335.75zM494.23 73.25L559.18 110.75L559.18 185.75L494.23 223.25L429.27 185.75L429.27 110.75zM494.23 523.25L559.18 560.75L559.18 635.75L494.23 673.25L429.27 635.75L429.27 560.75zM559.18 185.75L624.13 223.25L624.13 298.25L559.18 335.75L494.23 298.25L494.23 223.25zM818.99 185.75L883.95 223.25L883.95 298.25L818.99 335.75L754.04 298.25L754.04 223.25zM818.99 410.75L883.95 448.25L883.95 523.25L818.99 560.75L754.04 523.25L754.04 448.25zM948.9 -39.25L1013.86 -1.75L1013.86 73.25L948.9 110.75L883.95 73.25L883.95 -1.75zM948.9 185.75L1013.86 223.25L1013.86 298.25L948.9 335.75L883.95 298.25L883.95 223.25zM1013.86 298.25L1078.81 335.75L1078.81 410.75L1013.86 448.25L948.9 410.75L948.9 335.75zM1078.81 -39.25L1143.76 -1.75L1143.76 73.25L1078.81 110.75L1013.86 73.25L1013.86 -1.75zM1143.76 73.25L1208.72 110.75L1208.72 185.75L1143.76 223.25L1078.81 185.75L1078.81 110.75zM1208.72 185.75L1273.67 223.25L1273.67 298.25L1208.72 335.75L1143.76 298.25L1143.76 223.25zM1273.67 298.25L1338.62 335.75L1338.62 410.75L1273.67 448.25L1208.72 410.75L1208.72 335.75zM1208.72 410.75L1273.67 448.25L1273.67 523.25L1208.72 560.75L1143.76 523.25L1143.76 448.25zM1338.63 410.75L1403.58 448.25L1403.58 523.25L1338.63 560.75L1273.67 523.25L1273.67 448.25zM1468.53 410.75L1533.49 448.25L1533.49 523.25L1468.53 560.75L1403.58 523.25L1403.58 448.25z" stroke="#03305d" stroke-width="2"></path>
        <path d="M32.05 410.75 a7.5 7.5 0 1 0 15 0 a7.5 7.5 0 1 0 -15 0zM97 448.25 a7.5 7.5 0 1 0 15 0 a7.5 7.5 0 1 0 -15 0zM97 523.25 a7.5 7.5 0 1 0 15 0 a7.5 7.5 0 1 0 -15 0zM32.05 560.75 a7.5 7.5 0 1 0 15 0 a7.5 7.5 0 1 0 -15 0zM-32.9 523.25 a7.5 7.5 0 1 0 15 0 a7.5 7.5 0 1 0 -15 0zM-32.9 448.25 a7.5 7.5 0 1 0 15 0 a7.5 7.5 0 1 0 -15 0zM161.96 560.75 a7.5 7.5 0 1 0 15 0 a7.5 7.5 0 1 0 -15 0zM161.96 635.75 a7.5 7.5 0 1 0 15 0 a7.5 7.5 0 1 0 -15 0zM97 673.25 a7.5 7.5 0 1 0 15 0 a7.5 7.5 0 1 0 -15 0zM32.05 635.75 a7.5 7.5 0 1 0 15 0 a7.5 7.5 0 1 0 -15 0zM226.91 298.25 a7.5 7.5 0 1 0 15 0 a7.5 7.5 0 1 0 -15 0zM291.87 335.75 a7.5 7.5 0 1 0 15 0 a7.5 7.5 0 1 0 -15 0zM291.87 410.75 a7.5 7.5 0 1 0 15 0 a7.5 7.5 0 1 0 -15 0zM226.91 448.25 a7.5 7.5 0 1 0 15 0 a7.5 7.5 0 1 0 -15 0zM161.96 410.75 a7.5 7.5 0 1 0 15 0 a7.5 7.5 0 1 0 -15 0zM161.96 335.75 a7.5 7.5 0 1 0 15 0 a7.5 7.5 0 1 0 -15 0zM486.73 73.25 a7.5 7.5 0 1 0 15 0 a7.5 7.5 0 1 0 -15 0zM551.68 110.75 a7.5 7.5 0 1 0 15 0 a7.5 7.5 0 1 0 -15 0zM551.68 185.75 a7.5 7.5 0 1 0 15 0 a7.5 7.5 0 1 0 -15 0zM486.73 223.25 a7.5 7.5 0 1 0 15 0 a7.5 7.5 0 1 0 -15 0zM421.77 185.75 a7.5 7.5 0 1 0 15 0 a7.5 7.5 0 1 0 -15 0zM421.77 110.75 a7.5 7.5 0 1 0 15 0 a7.5 7.5 0 1 0 -15 0zM486.73 523.25 a7.5 7.5 0 1 0 15 0 a7.5 7.5 0 1 0 -15 0zM551.68 560.75 a7.5 7.5 0 1 0 15 0 a7.5 7.5 0 1 0 -15 0zM551.68 635.75 a7.5 7.5 0 1 0 15 0 a7.5 7.5 0 1 0 -15 0zM486.73 673.25 a7.5 7.5 0 1 0 15 0 a7.5 7.5 0 1 0 -15 0zM421.77 635.75 a7.5 7.5 0 1 0 15 0 a7.5 7.5 0 1 0 -15 0zM421.77 560.75 a7.5 7.5 0 1 0 15 0 a7.5 7.5 0 1 0 -15 0zM616.63 223.25 a7.5 7.5 0 1 0 15 0 a7.5 7.5 0 1 0 -15 0zM616.63 298.25 a7.5 7.5 0 1 0 15 0 a7.5 7.5 0 1 0 -15 0zM551.68 335.75 a7.5 7.5 0 1 0 15 0 a7.5 7.5 0 1 0 -15 0zM486.73 298.25 a7.5 7.5 0 1 0 15 0 a7.5 7.5 0 1 0 -15 0zM811.49 185.75 a7.5 7.5 0 1 0 15 0 a7.5 7.5 0 1 0 -15 0zM876.45 223.25 a7.5 7.5 0 1 0 15 0 a7.5 7.5 0 1 0 -15 0zM876.45 298.25 a7.5 7.5 0 1 0 15 0 a7.5 7.5 0 1 0 -15 0zM811.49 335.75 a7.5 7.5 0 1 0 15 0 a7.5 7.5 0 1 0 -15 0zM746.54 298.25 a7.5 7.5 0 1 0 15 0 a7.5 7.5 0 1 0 -15 0zM746.54 223.25 a7.5 7.5 0 1 0 15 0 a7.5 7.5 0 1 0 -15 0zM811.49 410.75 a7.5 7.5 0 1 0 15 0 a7.5 7.5 0 1 0 -15 0zM876.45 448.25 a7.5 7.5 0 1 0 15 0 a7.5 7.5 0 1 0 -15 0zM876.45 523.25 a7.5 7.5 0 1 0 15 0 a7.5 7.5 0 1 0 -15 0zM811.49 560.75 a7.5 7.5 0 1 0 15 0 a7.5 7.5 0 1 0 -15 0zM746.54 523.25 a7.5 7.5 0 1 0 15 0 a7.5 7.5 0 1 0 -15 0zM746.54 448.25 a7.5 7.5 0 1 0 15 0 a7.5 7.5 0 1 0 -15 0zM941.4 -39.25 a7.5 7.5 0 1 0 15 0 a7.5 7.5 0 1 0 -15 0zM1006.36 -1.75 a7.5 7.5 0 1 0 15 0 a7.5 7.5 0 1 0 -15 0zM1006.36 73.25 a7.5 7.5 0 1 0 15 0 a7.5 7.5 0 1 0 -15 0zM941.4 110.75 a7.5 7.5 0 1 0 15 0 a7.5 7.5 0 1 0 -15 0zM876.45 73.25 a7.5 7.5 0 1 0 15 0 a7.5 7.5 0 1 0 -15 0zM876.45 -1.75 a7.5 7.5 0 1 0 15 0 a7.5 7.5 0 1 0 -15 0zM941.4 185.75 a7.5 7.5 0 1 0 15 0 a7.5 7.5 0 1 0 -15 0zM1006.36 223.25 a7.5 7.5 0 1 0 15 0 a7.5 7.5 0 1 0 -15 0zM1006.36 298.25 a7.5 7.5 0 1 0 15 0 a7.5 7.5 0 1 0 -15 0zM941.4 335.75 a7.5 7.5 0 1 0 15 0 a7.5 7.5 0 1 0 -15 0zM1071.31 335.75 a7.5 7.5 0 1 0 15 0 a7.5 7.5 0 1 0 -15 0zM1071.31 410.75 a7.5 7.5 0 1 0 15 0 a7.5 7.5 0 1 0 -15 0zM1006.36 448.25 a7.5 7.5 0 1 0 15 0 a7.5 7.5 0 1 0 -15 0zM941.4 410.75 a7.5 7.5 0 1 0 15 0 a7.5 7.5 0 1 0 -15 0zM1071.31 -39.25 a7.5 7.5 0 1 0 15 0 a7.5 7.5 0 1 0 -15 0zM1136.26 -1.75 a7.5 7.5 0 1 0 15 0 a7.5 7.5 0 1 0 -15 0zM1136.26 73.25 a7.5 7.5 0 1 0 15 0 a7.5 7.5 0 1 0 -15 0zM1071.31 110.75 a7.5 7.5 0 1 0 15 0 a7.5 7.5 0 1 0 -15 0zM1201.22 110.75 a7.5 7.5 0 1 0 15 0 a7.5 7.5 0 1 0 -15 0zM1201.22 185.75 a7.5 7.5 0 1 0 15 0 a7.5 7.5 0 1 0 -15 0zM1136.26 223.25 a7.5 7.5 0 1 0 15 0 a7.5 7.5 0 1 0 -15 0zM1071.31 185.75 a7.5 7.5 0 1 0 15 0 a7.5 7.5 0 1 0 -15 0zM1266.17 223.25 a7.5 7.5 0 1 0 15 0 a7.5 7.5 0 1 0 -15 0zM1266.17 298.25 a7.5 7.5 0 1 0 15 0 a7.5 7.5 0 1 0 -15 0zM1201.22 335.75 a7.5 7.5 0 1 0 15 0 a7.5 7.5 0 1 0 -15 0zM1136.26 298.25 a7.5 7.5 0 1 0 15 0 a7.5 7.5 0 1 0 -15 0zM1331.12 335.75 a7.5 7.5 0 1 0 15 0 a7.5 7.5 0 1 0 -15 0zM1331.12 410.75 a7.5 7.5 0 1 0 15 0 a7.5 7.5 0 1 0 -15 0zM1266.17 448.25 a7.5 7.5 0 1 0 15 0 a7.5 7.5 0 1 0 -15 0zM1201.22 410.75 a7.5 7.5 0 1 0 15 0 a7.5 7.5 0 1 0 -15 0zM1266.17 523.25 a7.5 7.5 0 1 0 15 0 a7.5 7.5 0 1 0 -15 0zM1201.22 560.75 a7.5 7.5 0 1 0 15 0 a7.5 7.5 0 1 0 -15 0zM1136.26 523.25 a7.5 7.5 0 1 0 15 0 a7.5 7.5 0 1 0 -15 0zM1136.26 448.25 a7.5 7.5 0 1 0 15 0 a7.5 7.5 0 1 0 -15 0zM1331.13 410.75 a7.5 7.5 0 1 0 15 0 a7.5 7.5 0 1 0 -15 0zM1396.08 448.25 a7.5 7.5 0 1 0 15 0 a7.5 7.5 0 1 0 -15 0zM1396.08 523.25 a7.5 7.5 0 1 0 15 0 a7.5 7.5 0 1 0 -15 0zM1331.13 560.75 a7.5 7.5 0 1 0 15 0 a7.5 7.5 0 1 0 -15 0zM1461.03 410.75 a7.5 7.5 0 1 0 15 0 a7.5 7.5 0 1 0 -15 0zM1525.99 448.25 a7.5 7.5 0 1 0 15 0 a7.5 7.5 0 1 0 -15 0zM1525.99 523.25 a7.5 7.5 0 1 0 15 0 a7.5 7.5 0 1 0 -15 0zM1461.03 560.75 a7.5 7.5 0 1 0 15 0 a7.5 7.5 0 1 0 -15 0z" fill="#03305d"></path>
        <path d="M28.57 122.6L71.87 147.6L71.87 197.6L28.57 222.6L-14.73 197.6L-14.73 147.6zM71.87 197.6L115.18 222.6L115.18 272.6L71.87 297.6L28.57 272.6L28.57 222.6zM28.57 272.6L71.87 297.6L71.87 347.6L28.57 372.6L-14.73 347.6L-14.73 297.6zM158.48 47.6L201.78 72.6L201.78 122.6L158.48 147.6L115.18 122.6L115.18 72.6zM115.18 272.6L158.48 297.6L158.48 347.6L115.18 372.6L71.87 347.6L71.87 297.6zM374.99 -27.4L418.29 -2.4L418.29 47.6L374.99 72.6L331.69 47.6L331.69 -2.4zM374.99 422.6L418.29 447.6L418.29 497.6L374.99 522.6L331.69 497.6L331.69 447.6zM504.9 47.6L548.2 72.6L548.2 122.6L504.9 147.6L461.6 122.6L461.6 72.6zM461.6 422.6L504.9 447.6L504.9 497.6L461.6 522.6L418.29 497.6L418.29 447.6zM504.9 497.6L548.2 522.6L548.2 572.6L504.9 597.6L461.6 572.6L461.6 522.6zM548.2 422.6L591.5 447.6L591.5 497.6L548.2 522.6L504.9 497.6L504.9 447.6zM634.81 -27.4L678.11 -2.4L678.11 47.6L634.81 72.6L591.5 47.6L591.5 -2.4zM634.81 122.6L678.11 147.6L678.11 197.6L634.81 222.6L591.5 197.6L591.5 147.6zM808.02 -27.4L851.32 -2.4L851.32 47.6L808.02 72.6L764.71 47.6L764.71 -2.4zM894.62 -27.4L937.92 -2.4L937.92 47.6L894.62 72.6L851.32 47.6L851.32 -2.4zM1067.83 -27.4L1111.13 -2.4L1111.13 47.6L1067.83 72.6L1024.53 47.6L1024.53 -2.4zM1197.74 47.6L1241.04 72.6L1241.04 122.6L1197.74 147.6L1154.43 122.6L1154.43 72.6zM1154.43 272.6L1197.74 297.6L1197.74 347.6L1154.43 372.6L1111.13 347.6L1111.13 297.6zM1197.74 497.6L1241.04 522.6L1241.04 572.6L1197.74 597.6L1154.43 572.6L1154.43 522.6zM1284.34 197.6L1327.64 222.6L1327.64 272.6L1284.34 297.6L1241.04 272.6L1241.04 222.6zM1241.04 272.6L1284.34 297.6L1284.34 347.6L1241.04 372.6L1197.74 347.6L1197.74 297.6zM1284.34 497.6L1327.64 522.6L1327.64 572.6L1284.34 597.6L1241.04 572.6L1241.04 522.6zM1457.55 497.6L1500.86 522.6L1500.86 572.6L1457.55 597.6L1414.25 572.6L1414.25 522.6z" stroke="rgba(6, 80, 156, 0.93)" stroke-width="2"></path>
    </g>
    <defs>
        <mask id="SvgjsMask1000">
            <rect width="1440" height="560" fill="#ffffff"></rect>
        </mask>
    </defs>
</svg>